<svg width="119" height="24" viewBox="0 0 119 24" fill="none" xmlns="http://www.w3.org/2000/svg">
<g clip-path="url(#clip0_1_2480)">
<path d="M17.8973 0H3.37838C1.51532 0 0 1.36036 0 3.03423V3.73153C0 5.4054 1.51532 6.76757 3.37838 6.76757L11.564 6.78738C11.6906 6.78833 11.8118 6.83919 11.9012 6.92892C11.9906 7.01865 12.041 7.14001 12.0414 7.26666C12.0414 7.3296 12.029 7.39193 12.005 7.45008C11.9809 7.50823 11.9456 7.56106 11.9011 7.60557C11.8566 7.65007 11.8037 7.68537 11.7456 7.70946C11.6874 7.73355 11.6251 7.74594 11.5622 7.74594H10.0847L9.25406 7.75675C9.00631 7.75267 8.76023 7.7981 8.53027 7.89037C8.30031 7.98265 8.09109 8.11992 7.91488 8.29412C7.73866 8.46832 7.59901 8.67595 7.50409 8.90483C7.40918 9.13372 7.36093 9.37925 7.36216 9.62703V21.6577C7.36074 21.9647 7.41999 22.2691 7.53653 22.5532C7.65306 22.8373 7.82458 23.0956 8.04122 23.3133C8.25787 23.5309 8.51537 23.7036 8.79895 23.8215C9.08253 23.9393 9.3866 24 9.6937 24H11.7964C12.4161 23.9976 13.0095 23.7498 13.4469 23.3108C13.8842 22.8718 14.1297 22.2773 14.1297 21.6577V10.3063C14.1297 10.1792 14.1802 10.0573 14.2701 9.9674C14.36 9.87752 14.4819 9.82702 14.609 9.82702H17.4523C17.981 9.82726 18.5046 9.72332 18.9932 9.52114C19.4818 9.31896 19.9257 9.0225 20.2997 8.6487C20.6737 8.2749 20.9703 7.83109 21.1727 7.34261C21.3751 6.85413 21.4793 6.33055 21.4793 5.8018V3.58919C21.4783 2.63881 21.1009 1.72753 20.4295 1.05484C19.7582 0.382151 18.8477 0.00285923 17.8973 0ZM11.2306 21.8973H10.391C10.2685 21.8973 10.1472 21.8731 10.0341 21.8262C9.92096 21.7793 9.81819 21.7105 9.73166 21.6238C9.64514 21.5371 9.57656 21.4342 9.52985 21.321C9.48314 21.2078 9.45923 21.0864 9.45946 20.964V10.3081C9.45946 10.181 9.50996 10.0591 9.59984 9.96921C9.68972 9.87933 9.81163 9.82883 9.93874 9.82883H11.5712C11.6983 9.82883 11.8202 9.87933 11.9101 9.96921C12 10.0591 12.0505 10.181 12.0505 10.3081V21.0775C12.0505 21.2949 11.9641 21.5034 11.8103 21.6572C11.6566 21.8109 11.4481 21.8973 11.2306 21.8973ZM19.4 6.23964C19.4 6.6377 19.2419 7.01946 18.9604 7.30094C18.6789 7.58241 18.2972 7.74054 17.8991 7.74054H14.618C14.4909 7.74054 14.369 7.69005 14.2791 7.60016C14.1892 7.51028 14.1387 7.38837 14.1387 7.26126V6.38378C14.1387 6.15932 14.0945 5.93705 14.0085 5.7297C13.9226 5.52235 13.7966 5.33397 13.6378 5.17533C13.479 5.01669 13.2905 4.89091 13.0831 4.80518C12.8756 4.71944 12.6533 4.67544 12.4288 4.67567H3.37838C2.76937 4.67567 2.27567 4.25045 2.27567 3.72793V3.03063C2.27567 2.50811 2.76937 2.08469 3.37838 2.08469H17.8973C18.2952 2.08516 18.6767 2.24345 18.9581 2.52482C19.2394 2.80619 19.3977 3.18767 19.3982 3.58558L19.4 6.23964Z" fill="#6F00FF"/>
<path d="M34.0232 20.5C33.8633 20.5 33.7273 20.444 33.6153 20.332C33.5033 20.22 33.4473 20.084 33.4473 19.924V6.65205H29.0073C28.8473 6.65205 28.7113 6.59605 28.5993 6.48405C28.4873 6.37205 28.4313 6.23605 28.4313 6.07605V4.30006C28.4313 4.12406 28.4873 3.98006 28.5993 3.86806C28.7113 3.75606 28.8473 3.70006 29.0073 3.70006H41.2472C41.4232 3.70006 41.5672 3.75606 41.6792 3.86806C41.7912 3.98006 41.8472 4.12406 41.8472 4.30006V6.07605C41.8472 6.23605 41.7912 6.37205 41.6792 6.48405C41.5672 6.59605 41.4232 6.65205 41.2472 6.65205H36.8312V19.924C36.8312 20.084 36.7752 20.22 36.6632 20.332C36.5512 20.444 36.4072 20.5 36.2312 20.5H34.0232ZM42.4967 20.5C42.3367 20.5 42.2007 20.444 42.0887 20.332C41.9767 20.22 41.9207 20.084 41.9207 19.924V8.62004C41.9207 8.44404 41.9767 8.30004 42.0887 8.18805C42.2007 8.07605 42.3367 8.02005 42.4967 8.02005H44.4407C44.6007 8.02005 44.7367 8.07605 44.8487 8.18805C44.9767 8.30004 45.0407 8.44404 45.0407 8.62004V9.60404C45.4087 9.09204 45.8807 8.70004 46.4567 8.42804C47.0487 8.15605 47.7287 8.02005 48.4967 8.02005H49.4807C49.6567 8.02005 49.7927 8.07605 49.8887 8.18805C50.0007 8.30004 50.0567 8.43604 50.0567 8.59604V10.324C50.0567 10.484 50.0007 10.62 49.8887 10.732C49.7927 10.844 49.6567 10.9 49.4807 10.9H47.6087C46.8407 10.9 46.2407 11.116 45.8087 11.548C45.3927 11.98 45.1847 12.572 45.1847 13.324V19.924C45.1847 20.084 45.1287 20.22 45.0167 20.332C44.9047 20.444 44.7607 20.5 44.5847 20.5H42.4967ZM54.885 20.74C54.053 20.74 53.301 20.58 52.629 20.26C51.957 19.924 51.421 19.484 51.021 18.94C50.637 18.38 50.445 17.756 50.445 17.068C50.445 15.948 50.893 15.06 51.789 14.404C52.701 13.732 53.901 13.284 55.389 13.06L58.677 12.58V12.076C58.677 11.404 58.509 10.884 58.173 10.516C57.837 10.148 57.261 9.96404 56.445 9.96404C55.869 9.96404 55.397 10.084 55.029 10.324C54.677 10.548 54.413 10.852 54.237 11.236C54.109 11.444 53.925 11.548 53.685 11.548H51.789C51.613 11.548 51.477 11.5 51.381 11.404C51.301 11.308 51.261 11.18 51.261 11.02C51.277 10.764 51.381 10.452 51.573 10.084C51.765 9.71604 52.069 9.36404 52.485 9.02804C52.901 8.67604 53.437 8.38004 54.093 8.14005C54.749 7.90005 55.541 7.78005 56.469 7.78005C57.477 7.78005 58.325 7.90805 59.013 8.16405C59.717 8.40404 60.277 8.73204 60.693 9.14804C61.109 9.56404 61.413 10.052 61.605 10.612C61.797 11.172 61.893 11.764 61.893 12.388V19.924C61.893 20.084 61.837 20.22 61.725 20.332C61.613 20.444 61.477 20.5 61.317 20.5H59.373C59.197 20.5 59.053 20.444 58.941 20.332C58.845 20.22 58.797 20.084 58.797 19.924V18.988C58.589 19.292 58.309 19.58 57.957 19.852C57.605 20.108 57.173 20.324 56.661 20.5C56.165 20.66 55.573 20.74 54.885 20.74ZM55.701 18.46C56.261 18.46 56.765 18.34 57.213 18.1C57.677 17.86 58.037 17.492 58.293 16.996C58.565 16.484 58.701 15.844 58.701 15.076V14.572L56.301 14.956C55.357 15.1 54.653 15.332 54.189 15.652C53.725 15.972 53.493 16.364 53.493 16.828C53.493 17.18 53.597 17.484 53.805 17.74C54.029 17.98 54.309 18.164 54.645 18.292C54.981 18.404 55.333 18.46 55.701 18.46ZM69.1239 20.74C68.2919 20.74 67.5559 20.604 66.9159 20.332C66.2919 20.044 65.7719 19.644 65.3559 19.132C64.9399 18.62 64.6199 18.02 64.3959 17.332C64.1719 16.628 64.0439 15.86 64.0119 15.028C63.9959 14.74 63.9879 14.484 63.9879 14.26C63.9879 14.02 63.9959 13.756 64.0119 13.468C64.0439 12.668 64.1639 11.924 64.3719 11.236C64.5959 10.548 64.9159 9.94804 65.3319 9.43604C65.7639 8.90804 66.2919 8.50004 66.9159 8.21205C67.5559 7.92405 68.2919 7.78005 69.1239 7.78005C69.9879 7.78005 70.7159 7.93205 71.3079 8.23604C71.9159 8.52404 72.4199 8.90004 72.8199 9.36404V4.03606C72.8199 3.87606 72.8679 3.74006 72.9639 3.62806C73.0759 3.51606 73.2199 3.46006 73.3959 3.46006H75.4358C75.5958 3.46006 75.7318 3.51606 75.8438 3.62806C75.9558 3.74006 76.0118 3.87606 76.0118 4.03606V19.924C76.0118 20.084 75.9558 20.22 75.8438 20.332C75.7318 20.444 75.5958 20.5 75.4358 20.5H73.5399C73.3639 20.5 73.2199 20.444 73.1079 20.332C73.0119 20.22 72.9639 20.084 72.9639 19.924V19.036C72.5639 19.532 72.0519 19.94 71.4279 20.26C70.8199 20.58 70.0519 20.74 69.1239 20.74ZM70.0119 18.172C70.6839 18.172 71.2199 18.02 71.6199 17.716C72.0199 17.412 72.3159 17.028 72.5079 16.564C72.6999 16.084 72.8039 15.596 72.8199 15.1C72.8359 14.812 72.8439 14.508 72.8439 14.188C72.8439 13.852 72.8359 13.54 72.8199 13.252C72.8039 12.772 72.6919 12.316 72.4839 11.884C72.2759 11.436 71.9719 11.068 71.5719 10.78C71.1719 10.492 70.6519 10.348 70.0119 10.348C69.3399 10.348 68.8039 10.5 68.4039 10.804C68.0199 11.092 67.7399 11.476 67.5639 11.956C67.3879 12.436 67.2839 12.964 67.2519 13.54C67.2359 14.02 67.2359 14.5 67.2519 14.98C67.2839 15.556 67.3879 16.084 67.5639 16.564C67.7399 17.044 68.0199 17.436 68.4039 17.74C68.8039 18.028 69.3399 18.172 70.0119 18.172ZM84.1066 20.74C82.3306 20.74 80.9226 20.228 79.8826 19.204C78.8426 18.18 78.2826 16.724 78.2026 14.836C78.1866 14.676 78.1786 14.476 78.1786 14.236C78.1786 13.98 78.1866 13.78 78.2026 13.636C78.2666 12.436 78.5386 11.396 79.0186 10.516C79.5146 9.63604 80.1946 8.96404 81.0586 8.50004C81.9226 8.02005 82.9386 7.78005 84.1066 7.78005C85.4026 7.78005 86.4906 8.05205 87.3705 8.59604C88.2505 9.12404 88.9145 9.86804 89.3625 10.828C89.8105 11.772 90.0345 12.868 90.0345 14.116V14.62C90.0345 14.78 89.9785 14.916 89.8665 15.028C89.7545 15.14 89.6105 15.196 89.4345 15.196H81.4666C81.4666 15.196 81.4666 15.22 81.4666 15.268C81.4666 15.316 81.4666 15.356 81.4666 15.388C81.4826 15.948 81.5866 16.468 81.7786 16.948C81.9866 17.412 82.2826 17.788 82.6666 18.076C83.0666 18.364 83.5386 18.508 84.0826 18.508C84.5306 18.508 84.9066 18.444 85.2106 18.316C85.5146 18.172 85.7626 18.012 85.9546 17.836C86.1466 17.66 86.2826 17.516 86.3626 17.404C86.5066 17.212 86.6186 17.1 86.6986 17.068C86.7946 17.02 86.9306 16.996 87.1066 16.996H89.1705C89.3305 16.996 89.4585 17.044 89.5545 17.14C89.6665 17.236 89.7145 17.356 89.6985 17.5C89.6825 17.756 89.5465 18.068 89.2905 18.436C89.0505 18.804 88.6985 19.164 88.2345 19.516C87.7705 19.868 87.1866 20.164 86.4826 20.404C85.7946 20.628 85.0026 20.74 84.1066 20.74ZM81.4666 13.18H86.7706V13.108C86.7706 12.484 86.6666 11.94 86.4586 11.476C86.2506 11.012 85.9466 10.644 85.5466 10.372C85.1466 10.1 84.6666 9.96404 84.1066 9.96404C83.5466 9.96404 83.0666 10.1 82.6666 10.372C82.2666 10.644 81.9626 11.012 81.7546 11.476C81.5626 11.94 81.4666 12.484 81.4666 13.108V13.18ZM96.0728 20.5C95.8168 20.5 95.6248 20.444 95.4968 20.332C95.3848 20.204 95.2888 20.06 95.2088 19.9L90.7208 8.76404C90.6888 8.68404 90.6728 8.61204 90.6728 8.54804C90.6728 8.40404 90.7208 8.28405 90.8168 8.18805C90.9288 8.07605 91.0568 8.02005 91.2008 8.02005H93.1448C93.3368 8.02005 93.4808 8.07605 93.5768 8.18805C93.6728 8.28405 93.7368 8.38004 93.7688 8.47604L96.9608 16.9L100.153 8.47604C100.185 8.38004 100.249 8.28405 100.345 8.18805C100.441 8.07605 100.585 8.02005 100.777 8.02005H102.745C102.873 8.02005 102.985 8.07605 103.081 8.18805C103.193 8.28405 103.249 8.40404 103.249 8.54804C103.249 8.61204 103.241 8.68404 103.225 8.76404L98.7128 19.9C98.6488 20.06 98.5528 20.204 98.4248 20.332C98.2968 20.444 98.1048 20.5 97.8488 20.5H96.0728ZM109.59 20.74C108.614 20.74 107.766 20.524 107.046 20.092C106.342 19.644 105.798 19.02 105.414 18.22C105.03 17.404 104.838 16.444 104.838 15.34V8.59604C104.838 8.43604 104.894 8.30004 105.006 8.18805C105.118 8.07605 105.254 8.02005 105.414 8.02005H107.526C107.702 8.02005 107.838 8.07605 107.934 8.18805C108.046 8.30004 108.102 8.43604 108.102 8.59604V15.196C108.102 17.18 108.974 18.172 110.718 18.172C111.55 18.172 112.206 17.908 112.686 17.38C113.182 16.852 113.43 16.124 113.43 15.196V8.59604C113.43 8.43604 113.486 8.30004 113.598 8.18805C113.71 8.07605 113.846 8.02005 114.006 8.02005H116.118C116.278 8.02005 116.414 8.07605 116.526 8.18805C116.638 8.30004 116.694 8.43604 116.694 8.59604V19.924C116.694 20.084 116.638 20.22 116.526 20.332C116.414 20.444 116.278 20.5 116.118 20.5H114.174C113.998 20.5 113.854 20.444 113.742 20.332C113.646 20.22 113.598 20.084 113.598 19.924V18.94C113.166 19.5 112.63 19.94 111.99 20.26C111.35 20.58 110.55 20.74 109.59 20.74Z" fill="#101828"/>
</g>
<defs>
<clipPath id="clip0_1_2480">
<rect width="118.879" height="24" fill="white"/>
</clipPath>
</defs>
</svg>
